<?xml version="1.0" encoding="UTF-8" standalone="no"?>
<!-- Created with Inkscape (http://www.inkscape.org/) -->

<svg
   width="113.34749mm"
   height="62.580723mm"
   viewBox="0 0 113.34749 62.580723"
   version="1.1"
   id="svg1"
   inkscape:version="1.3.2 (091e20e, 2023-11-25, custom)"
   sodipodi:docname="fromJapan.svg"
   inkscape:export-filename="fromJapan.png"
   inkscape:export-xdpi="50"
   inkscape:export-ydpi="50"
   xmlns:inkscape="http://www.inkscape.org/namespaces/inkscape"
   xmlns:sodipodi="http://sodipodi.sourceforge.net/DTD/sodipodi-0.dtd"
   xmlns="http://www.w3.org/2000/svg"
   xmlns:svg="http://www.w3.org/2000/svg">
  <sodipodi:namedview
     id="namedview1"
     pagecolor="#505050"
     bordercolor="#eeeeee"
     borderopacity="1"
     inkscape:showpageshadow="0"
     inkscape:pageopacity="0"
     inkscape:pagecheckerboard="0"
     inkscape:deskcolor="#505050"
     inkscape:document-units="mm"
     inkscape:zoom="0.34457071"
     inkscape:cx="101.57567"
     inkscape:cy="349.71051"
     inkscape:window-width="1366"
     inkscape:window-height="705"
     inkscape:window-x="-8"
     inkscape:window-y="-8"
     inkscape:window-maximized="1"
     inkscape:current-layer="layer1" />
  <defs
     id="defs1">
    <marker
       style="overflow:visible"
       id="ArrowWideRounded"
       refX="0"
       refY="0"
       orient="auto-start-reverse"
       inkscape:stockid="Wide, rounded arrow"
       markerWidth="1"
       markerHeight="1"
       viewBox="0 0 1 1"
       inkscape:isstock="true"
       inkscape:collect="always"
       preserveAspectRatio="xMidYMid">
      <path
         style="fill:none;stroke:context-stroke;stroke-width:1;stroke-linecap:round"
         d="M 3,-3 0,0 3,3"
         transform="rotate(180,0.125,0)"
         sodipodi:nodetypes="ccc"
         id="path7" />
    </marker>
  </defs>
  <g
     inkscape:label="Capa 1"
     inkscape:groupmode="layer"
     id="layer1"
     transform="translate(-91.826253,-75.721972)">
    <rect
       style="font-variation-settings:normal;display:none;opacity:1;fill:#4925c5;fill-opacity:1;stroke:none;stroke-width:1.484;stroke-linecap:round;stroke-linejoin:round;stroke-miterlimit:4;stroke-dasharray:none;stroke-dashoffset:0;stroke-opacity:1"
       id="rect7"
       width="263.33636"
       height="152.02925"
       x="15.745887"
       y="27.148081" />
    <g
       id="g8"
       inkscape:label="textos"
       style="fill:#ffffff;fill-opacity:1">
      <path
         d="m 108.78726,96.221381 c -0.46939,1.841426 -0.4096,1.752343 -0.87898,2.90775 -0.46939,1.173449 -0.97488,2.094169 -1.51647,2.762129 -0.5416,0.66797 -1.11931,1.12832 -1.73311,1.38107 -0.63186,0.25274 -1.33594,0.37911 -2.11222,0.37911 -0.75824,0 -1.38108,-0.19858 -1.86851,-0.59575 -0.48744,-0.39717 -0.731154,-0.88461 -0.731154,-1.4623 0,-0.45133 0.117344,-0.8124 0.352034,-1.08319 0.23469,-0.25275 0.55965,-0.37912 0.97488,-0.37912 0.37911,0 0.64088,0.0993 0.78531,0.29788 0.14442,0.19858 0.2708,0.41522 0.37912,0.64991 0.0903,0.23469 0.19858,0.45133 0.32495,0.64991 0.12637,0.19858 0.37009,0.29787 0.73116,0.29787 0.41522,0 0.79433,-0.21664 1.13735,-0.6499 0.34301,-0.43328 0.60478,-1.00196 0.78531,-1.706029 l 3.39741,-13.658425 h -2.59967 l 0.35204,-1.245671 h 2.57258 c 0.39717,-1.624788 0.83045,-3.005858 1.29983,-4.143209 0.46939,-1.137351 0.97488,-2.067091 1.51647,-2.789219 0.5416,-0.740181 1.1193,-1.272751 1.73311,-1.597708 0.61381,-0.343011 1.27275,-0.514517 1.97682,-0.514517 1.06514,0 1.94072,0.225665 2.62675,0.676995 0.68602,0.433277 1.02903,0.9839 1.02903,1.651868 0,0.415223 -0.11735,0.767261 -0.35204,1.056112 -0.21664,0.288851 -0.53257,0.433277 -0.94779,0.433277 -0.34301,0 -0.61381,-0.06319 -0.8124,-0.189559 -0.18053,-0.126372 -0.32495,-0.288851 -0.43327,-0.487436 -0.0903,-0.198585 -0.16248,-0.406197 -0.21664,-0.622835 -0.0361,-0.216639 -0.0903,-0.424251 -0.16248,-0.622836 -0.0722,-0.198585 -0.18053,-0.361064 -0.32496,-0.487436 -0.14443,-0.126373 -0.36106,-0.189559 -0.64991,-0.189559 -0.36107,0 -0.72213,0.198585 -1.0832,0.595756 -0.34301,0.379117 -0.67699,0.920713 -1.00195,1.624788 -0.32495,0.686021 -0.63186,1.507442 -0.92071,2.464262 -0.28885,0.956819 -0.55063,2.003905 -0.78532,3.141256 h 2.73506 l -0.37911,1.245671 h -2.65382 z m 5.49719,-8.611377 c 0.19858,-0.45133 0.49646,-0.911686 0.89363,-1.381069 0.41522,-0.487437 0.85752,-0.920714 1.32691,-1.299831 0.48743,-0.39717 0.97487,-0.722128 1.46231,-0.974873 0.48743,-0.252745 0.91168,-0.379117 1.27275,-0.379117 0.43327,0 0.7492,0.162479 0.94779,0.487437 0.19859,0.324957 0.29788,0.8485 0.29788,1.570628 0,0.288851 -0.0181,0.568676 -0.0542,0.839474 -0.0181,0.270798 -0.0632,0.586729 -0.1354,0.947793 l 0.0812,0.08124 c 0.21664,-0.523543 0.52354,-1.038059 0.92071,-1.543548 0.39717,-0.50549 0.82142,-0.947794 1.27275,-1.326911 0.46939,-0.39717 0.93877,-0.713101 1.40815,-0.947793 0.48744,-0.252745 0.93877,-0.379117 1.35399,-0.379117 0.52355,0 0.95682,0.171505 1.29983,0.514516 0.36107,0.324958 0.5416,0.731155 0.5416,1.218591 0,0.469383 -0.15345,0.857527 -0.46036,1.164432 -0.28885,0.306904 -0.66796,0.460356 -1.13735,0.460356 -0.28885,0 -0.52354,-0.05416 -0.70407,-0.162478 -0.16248,-0.108319 -0.30691,-0.216639 -0.43328,-0.324958 l -0.35204,-0.352037 c -0.10832,-0.108319 -0.24372,-0.162479 -0.40619,-0.162479 -0.34301,0 -0.74019,0.234692 -1.19152,0.704075 -0.45133,0.45133 -0.92071,1.074165 -1.40814,1.868506 -0.48744,0.794341 -0.97488,1.72408 -1.46231,2.789219 -0.46939,1.065139 -0.90266,2.211517 -1.29983,3.439135 l -1.2186,3.737012 h -2.51842 l 1.76019,-5.605518 c 0.34301,-1.083192 0.62284,-1.976826 0.83947,-2.680901 0.23469,-0.722128 0.41523,-1.317883 0.5416,-1.787266 0.12637,-0.487437 0.20761,-0.866554 0.24372,-1.137352 0.0541,-0.270798 0.0812,-0.50549 0.0812,-0.704075 0,-0.39717 -0.1354,-0.595755 -0.4062,-0.595755 -0.18053,0 -0.4062,0.07221 -0.67699,0.216638 -0.25275,0.144425 -0.50549,0.324957 -0.75824,0.541596 -0.25275,0.216639 -0.49646,0.460357 -0.73115,0.731155 -0.21664,0.270798 -0.37912,0.532569 -0.48744,0.785314 z m 16.78943,10.859 c -0.61381,0 -1.19151,-0.117346 -1.73311,-0.352037 -0.52354,-0.252745 -0.9839,-0.613809 -1.38107,-1.083192 -0.39717,-0.469383 -0.7131,-1.038059 -0.94779,-1.706028 -0.23469,-0.686021 -0.35204,-1.453282 -0.35204,-2.301783 0,-1.173458 0.21664,-2.328863 0.64992,-3.466214 0.45133,-1.137351 1.03806,-2.148331 1.76019,-3.032938 0.72213,-0.884607 1.54355,-1.597708 2.46426,-2.139304 0.93877,-0.541596 1.90461,-0.812394 2.89754,-0.812394 0.64991,0 1.24567,0.126372 1.78726,0.379117 0.55965,0.234692 1.02904,0.58673 1.40815,1.056113 0.39717,0.45133 0.70408,1.001952 0.92072,1.651867 0.23469,0.631862 0.35203,1.335937 0.35203,2.112225 0,1.137351 -0.22566,2.283729 -0.67699,3.439134 -0.45133,1.155405 -1.04709,2.193464 -1.78727,3.114177 -0.72213,0.920713 -1.55257,1.678948 -2.49134,2.274703 -0.93877,0.577703 -1.89559,0.866554 -2.87046,0.866554 z m 0.16248,-1.35399 c 0.61381,0 1.21859,-0.315931 1.81435,-0.947793 0.61381,-0.631862 1.1554,-1.426203 1.62479,-2.383022 0.48743,-0.974873 0.87558,-2.030985 1.16443,-3.168337 0.3069,-1.137351 0.46035,-2.220543 0.46035,-3.249576 0,-0.956819 -0.1715,-1.615761 -0.51451,-1.976825 -0.32496,-0.361064 -0.77629,-0.541596 -1.35399,-0.541596 -0.39717,0 -0.80337,0.144426 -1.21859,0.433277 -0.39717,0.270798 -0.77629,0.649915 -1.13736,1.137351 -0.36106,0.487437 -0.70407,1.047086 -1.02903,1.678948 -0.3069,0.631862 -0.5777,1.29983 -0.81239,2.003905 -0.23469,0.704075 -0.41523,1.426203 -0.5416,2.166384 -0.12637,0.722128 -0.18956,1.417176 -0.18956,2.085144 0,1.010979 0.16248,1.724081 0.48744,2.139305 0.32496,0.415223 0.74018,0.622835 1.24567,0.622835 z m 26.89026,-7.934381 c 0.23469,-0.667969 0.41523,-1.200538 0.5416,-1.597708 0.14442,-0.397171 0.25274,-0.704075 0.32495,-0.920714 0.0722,-0.234691 0.11735,-0.415223 0.1354,-0.541596 0.0181,-0.126372 0.0271,-0.243718 0.0271,-0.352037 0,-0.523543 -0.18053,-0.785314 -0.54159,-0.785314 -0.48744,0 -1.06514,0.333984 -1.73311,1.001952 -0.66797,0.649915 -1.39009,1.597708 -2.16638,2.843379 -0.2708,0.433277 -0.52355,0.875581 -0.75824,1.326911 -0.23469,0.433277 -0.48744,0.983899 -0.75823,1.651867 -0.2708,0.649915 -0.58673,1.480363 -0.9478,2.491342 -0.36106,1.010979 -0.82142,2.31081 -1.38107,3.899491 h -2.5455 l 1.78727,-5.44304 c 0.37912,-1.155405 0.69505,-2.121251 0.94779,-2.897538 0.25275,-0.794341 0.45133,-1.453283 0.59576,-1.976826 0.14443,-0.523543 0.24372,-0.938766 0.29788,-1.24567 0.0722,-0.306905 0.10832,-0.55965 0.10832,-0.758235 0,-0.595755 -0.22567,-0.893633 -0.677,-0.893633 -0.36107,0 -0.79434,0.207612 -1.29983,0.622835 -0.50549,0.415224 -1.02,0.95682 -1.54355,1.624788 -0.52354,0.667969 -1.02903,1.426203 -1.51647,2.274703 -0.46938,0.830447 -0.86655,1.678948 -1.19151,2.545502 l -2.2747,6.147114 h -2.38302 l 2.0039,-6.201274 c 0.34301,-1.047085 0.62284,-1.922666 0.83947,-2.626741 0.21664,-0.722128 0.38815,-1.308857 0.51452,-1.760187 0.12637,-0.469383 0.21664,-0.839473 0.2708,-1.110271 0.0541,-0.270798 0.0812,-0.496463 0.0812,-0.676995 0,-0.50549 -0.15345,-0.758235 -0.46036,-0.758235 -0.19859,0 -0.43328,0.117346 -0.70407,0.352038 -0.25275,0.234691 -0.51452,0.559649 -0.78532,0.974872 -0.27079,0.397171 -0.54159,0.857527 -0.81239,1.38107 -0.25275,0.523543 -0.47841,1.074165 -0.677,1.651868 l -0.81239,-0.406197 c 0.63186,-1.859479 1.33593,-3.231523 2.11222,-4.11613 0.79435,-0.884607 1.69701,-1.32691 2.70798,-1.32691 0.57771,0 0.98391,0.162479 1.2186,0.487437 0.25274,0.324957 0.37911,0.866553 0.37911,1.624788 0,0.866553 -0.15345,1.697 -0.46035,2.491341 l 0.0812,0.08124 c 1.67895,-3.123204 3.45719,-4.684806 5.33472,-4.684806 0.70407,0 1.25469,0.216638 1.65186,0.649915 0.39717,0.415224 0.59576,1.001953 0.59576,1.760187 0,0.252745 -0.0361,0.541597 -0.10832,0.866554 -0.0541,0.324957 -0.17148,0.803367 -0.35204,1.435229 l 0.0542,0.08124 c 0.50549,-0.866554 0.9839,-1.597709 1.43523,-2.193464 0.46939,-0.613809 0.92072,-1.110272 1.35399,-1.489389 0.43328,-0.379117 0.86656,-0.658942 1.29983,-0.839474 0.45133,-0.180532 0.91169,-0.270798 1.38107,-0.270798 0.70407,0 1.22762,0.189559 1.57063,0.568676 0.36107,0.379117 0.5416,0.974873 0.5416,1.787267 0,0.252745 -0.0271,0.532569 -0.0812,0.839474 -0.0541,0.288851 -0.13537,0.640888 -0.24372,1.056112 -0.10832,0.39717 -0.25275,0.866553 -0.43328,1.408149 -0.16248,0.523543 -0.36106,1.146379 -0.59575,1.868507 -0.30691,0.920713 -0.55063,1.660894 -0.73116,2.220543 -0.18053,0.541596 -0.31593,0.974873 -0.4062,1.29983 -0.0903,0.324958 -0.15344,0.568676 -0.18955,0.731155 -0.0181,0.162479 -0.0271,0.324957 -0.0271,0.487436 0,0.343011 0.0903,0.514517 0.27079,0.514517 0.2708,0 0.677,-0.252745 1.21859,-0.758235 0.5416,-0.523543 1.24568,-1.32691 2.11223,-2.410102 l 0.70407,0.379117 c -0.3069,0.595756 -0.70407,1.191512 -1.19151,1.787267 -0.46938,0.577703 -0.96584,1.101245 -1.48939,1.570628 -0.52354,0.45133 -1.04708,0.821421 -1.57062,1.110272 -0.50549,0.288851 -0.9478,0.433277 -1.32691,0.433277 -0.45133,0 -0.8124,-0.189559 -1.0832,-0.568676 -0.25274,-0.39717 -0.37911,-0.920713 -0.37911,-1.570628 0,-0.216639 0.0181,-0.460357 0.0542,-0.731155 0.0541,-0.270798 0.15342,-0.658942 0.29787,-1.164431 0.16248,-0.50549 0.37912,-1.173458 0.64992,-2.003905 0.28885,-0.830447 0.66797,-1.913639 1.13735,-3.249576 z"
         id="text1"
         style="font-style:italic;font-size:27.0798px;font-family:'Libre Baskerville';-inkscape-font-specification:'Libre Baskerville Italic';fill:#ffffff;fill-opacity:1;stroke-width:2.54135;stroke-linecap:square;stroke-linejoin:round"
         aria-label="from"
         sodipodi:nodetypes="ccscssscsscssscccccsccscscscccsssccsccccccccsssscccsccscscsccsscsccccccccsscscccscscscscscccssccsscccscscscscssscccsssccccsccccscsssscccccccsssccccccscsccscsccccscscscccccscssccccccscsccccc" />
      <text
         xml:space="preserve"
         style="font-style:normal;font-variant:normal;font-weight:normal;font-stretch:normal;font-size:32.1007px;font-family:'Century Gothic';-inkscape-font-specification:'Century Gothic';fill:#ffffff;fill-opacity:1;stroke:none;stroke-width:3.01255;stroke-linecap:square;stroke-linejoin:round;stroke-opacity:1"
         x="95.35733"
         y="129.95651"
         id="text2"><tspan
           sodipodi:role="line"
           id="tspan2"
           style="font-style:normal;font-variant:normal;font-weight:normal;font-stretch:normal;font-family:'Libre Baskerville';-inkscape-font-specification:'Libre Baskerville';fill:#ffffff;fill-opacity:1;stroke-width:3.01256"
           x="95.35733"
           y="129.95651">JAPAN</tspan></text>
    </g>
    <g
       id="g7"
       transform="translate(-38.443365,3.9584657)"
       style="fill:none;fill-opacity:1;stroke:#ffffff;stroke-opacity:1"
       inkscape:label="simbolos">
      <path
         style="fill:none;fill-opacity:1;stroke:#ffffff;stroke-width:0.943195;stroke-linecap:round;stroke-linejoin:round;stroke-dasharray:none;stroke-dashoffset:0;stroke-opacity:1"
         d="m 149.58326,97.873431 h 71.94868"
         id="path1" />
      <path
         id="path2"
         style="fill:none;fill-opacity:1;stroke:#ffffff;stroke-width:0.376886;stroke-linecap:round;stroke-linejoin:round;stroke-dasharray:none;stroke-opacity:1"
         d="m 236.70336,97.869954 c -0.004,-0.37944 -0.50176,-0.758835 -1.47503,-0.758835 h -1.3687 l -3.03665,-5.284936 -1.58618,-10e-7 1.92976,5.284936 -4.72217,10e-7 -1.07723,-1.874643 -0.86283,-10e-7 1.20354,2.633478 -1.20354,2.633597 h 0.86283 l 1.07708,-1.874637 h 4.72244 l -1.92991,5.284927 h 1.5862 l 3.03677,-5.284931 h 1.36858 c 0.99344,1e-6 1.48006,-0.379524 1.47502,-0.758966 z"
         sodipodi:nodetypes="sscccccccccccccccss" />
    </g>
  </g>
</svg>
